<svg width="236" height="86" viewBox="0 0 236 86" fill="none" xmlns="http://www.w3.org/2000/svg">
<path d="M93.1099 24.665C97.2899 24.665 100.902 25.4533 103.945 27.03C107.025 28.57 109.372 30.7883 110.985 33.685C112.635 36.5817 113.46 39.9917 113.46 43.915C113.46 47.8383 112.635 51.2483 110.985 54.145C109.372 57.005 107.025 59.205 103.945 60.745C100.902 62.2483 97.2899 63 93.1099 63H81.1749V24.665H93.1099ZM93.1099 58.875C98.0599 58.875 101.837 57.5733 104.44 54.97C107.043 52.33 108.345 48.645 108.345 43.915C108.345 39.1483 107.025 35.4267 104.385 32.75C101.782 30.0733 98.0233 28.735 93.1099 28.735H86.1799V58.875H93.1099ZM146.462 46.775C146.462 47.7283 146.407 48.7367 146.297 49.8H122.207C122.39 52.77 123.398 55.0983 125.232 56.785C127.102 58.435 129.357 59.26 131.997 59.26C134.16 59.26 135.957 58.765 137.387 57.775C138.853 56.7483 139.88 55.3917 140.467 53.705H145.857C145.05 56.6017 143.437 58.9667 141.017 60.8C138.597 62.5967 135.59 63.495 131.997 63.495C129.137 63.495 126.57 62.8533 124.297 61.57C122.06 60.2867 120.3 58.4717 119.017 56.125C117.733 53.7417 117.092 50.9917 117.092 47.875C117.092 44.7583 117.715 42.0267 118.962 39.68C120.208 37.3333 121.95 35.5367 124.187 34.29C126.46 33.0067 129.063 32.365 131.997 32.365C134.857 32.365 137.387 32.9883 139.587 34.235C141.787 35.4817 143.473 37.205 144.647 39.405C145.857 41.5683 146.462 44.025 146.462 46.775ZM141.292 45.73C141.292 43.8233 140.87 42.1917 140.027 40.835C139.183 39.4417 138.028 38.3967 136.562 37.7C135.132 36.9667 133.537 36.6 131.777 36.6C129.247 36.6 127.083 37.4067 125.287 39.02C123.527 40.6333 122.518 42.87 122.262 45.73H141.292ZM156.973 22.3V63H151.968V22.3H156.973ZM170.508 36.985V54.75C170.508 56.2167 170.82 57.2617 171.443 57.885C172.067 58.4717 173.148 58.765 174.688 58.765H178.373V63H173.863C171.077 63 168.987 62.3583 167.593 61.075C166.2 59.7917 165.503 57.6833 165.503 54.75V36.985H161.598V32.86H165.503V25.27H170.508V32.86H178.373V36.985H170.508ZM181.467 47.82C181.467 44.74 182.091 42.045 183.337 39.735C184.584 37.3883 186.289 35.5733 188.452 34.29C190.652 33.0067 193.091 32.365 195.767 32.365C198.407 32.365 200.699 32.9333 202.642 34.07C204.586 35.2067 206.034 36.6367 206.987 38.36V32.86H212.047V63H206.987V57.39C205.997 59.15 204.512 60.6167 202.532 61.79C200.589 62.9267 198.316 63.495 195.712 63.495C193.036 63.495 190.616 62.835 188.452 61.515C186.289 60.195 184.584 58.3433 183.337 55.96C182.091 53.5767 181.467 50.8633 181.467 47.82ZM206.987 47.875C206.987 45.6017 206.529 43.6217 205.612 41.935C204.696 40.2483 203.449 38.965 201.872 38.085C200.332 37.1683 198.627 36.71 196.757 36.71C194.887 36.71 193.182 37.15 191.642 38.03C190.102 38.91 188.874 40.1933 187.957 41.88C187.041 43.5667 186.582 45.5467 186.582 47.82C186.582 50.13 187.041 52.1467 187.957 53.87C188.874 55.5567 190.102 56.8583 191.642 57.775C193.182 58.655 194.887 59.095 196.757 59.095C198.627 59.095 200.332 58.655 201.872 57.775C203.449 56.8583 204.696 55.5567 205.612 53.87C206.529 52.1467 206.987 50.1483 206.987 47.875Z" fill="black"/>
<path d="M37.6944 28.6582C38.0696 27.947 39.0882 27.947 39.4634 28.6582L52.0939 52.6004C52.4452 53.2664 51.9624 54.067 51.2094 54.067H25.9483C25.1954 54.067 24.7126 53.2664 25.0639 52.6004L37.6944 28.6582ZM39.4632 18.6754C39.088 17.9645 38.0698 17.9645 37.6945 18.6754L16.9921 57.8955C16.6406 58.5615 17.1234 59.3623 17.8765 59.3623H59.2813C60.0344 59.3623 60.5172 58.5615 60.1657 57.8955L39.4632 18.6754Z" fill="#FFB800"/>
<path d="M27.5794 30.7698C27.9562 30.0651 28.9663 30.0651 29.3431 30.7698L45.2605 60.5384C45.6167 61.2046 45.1341 62.01 44.3787 62.01H12.5438C11.7884 62.01 11.3058 61.2046 11.662 60.5384L27.5794 30.7698ZM29.343 18.648C28.9661 17.9437 27.9563 17.9437 27.5795 18.648L1.72735 66.9682C1.37095 67.6344 1.85359 68.44 2.60909 68.44H54.3134C55.0689 68.44 55.5515 67.6344 55.1951 66.9682L29.343 18.648Z" fill="black"/>
</svg>
