<svg width="796" height="543" viewBox="0 0 796 543" fill="none" xmlns="http://www.w3.org/2000/svg">
<g clip-path="url(#clip0_1_725)">
<path fill-rule="evenodd" clip-rule="evenodd" d="M700.775 491.487C700.775 491.487 767.094 412.513 689.721 344.13C689.721 344.13 759.204 266.821 714.991 179.117C670.779 91.4131 585.504 98.8452 517.609 116.685C449.715 134.524 361.29 125.598 293.382 55.734C225.488 -14.1301 146.527 0.734003 116.531 33.4377C86.522 66.1415 78.6325 133.043 111.792 199.945C144.952 266.847 126.009 309.958 97.5752 342.662C69.1546 375.366 65.9909 466.399 133.898 491.5H700.775V491.487Z" fill="#D2EAF9"/>
<path fill-rule="evenodd" clip-rule="evenodd" d="M684.339 519.511C684.339 519.511 755.213 476.937 738.017 403.416C738.017 403.416 737.518 401.528 739.159 401.227C740.8 400.925 776.02 457.485 726.819 509.261L684.339 519.511Z" fill="#D2EAF9"/>
<path fill-rule="evenodd" clip-rule="evenodd" d="M125.024 512.367C125.024 512.367 50.5663 463.108 68.6295 378.026C68.6295 378.026 69.1546 375.85 67.4218 375.496C65.689 375.142 28.6963 440.589 80.3915 500.491L125.024 512.367Z" fill="#D2EAF9"/>
<path fill-rule="evenodd" clip-rule="evenodd" d="M34.2622 491.486H773.959C778.803 491.486 782.781 495.445 782.781 500.294C782.781 505.144 778.816 509.103 773.959 509.103H744.2C741.508 509.103 739.303 511.305 739.303 513.992C739.303 516.679 741.508 518.881 744.2 518.881H755.095C758.469 518.881 761.226 521.634 761.226 525.003C761.226 528.371 758.469 531.124 755.095 531.124H54.1107C50.737 531.124 47.9803 528.371 47.9803 525.003C47.9803 521.634 50.737 518.881 54.1107 518.881H62.6828C65.3739 518.881 67.5793 516.679 67.5793 513.992C67.5793 511.305 65.3739 509.103 62.6828 509.103H34.2622C29.4051 509.103 25.4407 505.131 25.4407 500.294C25.4407 495.458 29.4183 491.486 34.2622 491.486ZM38.8568 531.137C42.0861 531.137 44.7378 528.489 44.7378 525.265V524.78C44.7378 521.555 42.0861 518.907 38.8568 518.907C35.6275 518.907 32.9758 521.555 32.9758 524.78V525.265C32.9758 528.489 35.6275 531.137 38.8568 531.137Z" fill="#01051A"/>
<path fill-rule="evenodd" clip-rule="evenodd" d="M128.713 295.434C110.269 276.69 96.5513 300.507 98.4679 324.415C100.279 347.079 119.852 424.86 116.229 457.577H123.725C142.05 415.619 152.329 319.434 128.713 295.434Z" fill="#3493D1"/>
<path fill-rule="evenodd" clip-rule="evenodd" d="M120.968 457.576C138.808 391.448 116.229 300.035 116.15 299.72C116.019 299.157 115.441 298.803 114.877 298.947C114.313 299.078 113.958 299.655 114.102 300.218C114.181 300.533 136.786 392.051 118.815 457.576H120.968Z" fill="#80BEE8"/>
<path fill-rule="evenodd" clip-rule="evenodd" d="M83.2139 336.75C63.7855 326.473 58.8759 348.9 66.4504 367.461C72.7252 382.836 100.463 428.333 110.952 457.563H120.837C121.677 417.179 106.16 348.887 83.2139 336.75Z" fill="#80BEE8"/>
<path fill-rule="evenodd" clip-rule="evenodd" d="M117.227 457.577C110.794 402.944 74.4055 343.553 74.2742 343.343C74.0248 342.923 73.4735 342.792 73.0534 343.041C72.6333 343.29 72.5021 343.841 72.7515 344.26C72.8827 344.47 109.035 403.481 115.455 457.577H117.227V457.577Z" fill="#3493D1"/>
<path fill-rule="evenodd" clip-rule="evenodd" d="M165.351 362.69C184.189 354.471 187.169 375.719 178.807 392.484C173.149 403.822 152.736 432.868 138.992 457.577H123.318C128.674 420.193 145.884 371.184 165.351 362.69Z" fill="white"/>
<path fill-rule="evenodd" clip-rule="evenodd" d="M128.923 457.577C142.3 412.303 173.097 369.624 173.215 369.453C173.477 369.086 174.002 368.995 174.37 369.257C174.737 369.519 174.829 370.03 174.567 370.41C174.449 370.581 143.967 412.814 130.63 457.577H128.923Z" fill="#D2EAF9"/>
<path fill-rule="evenodd" clip-rule="evenodd" d="M99.1767 442.621H154.364C156.018 442.621 157.37 443.971 157.37 445.622V459.228C157.37 460.88 156.018 462.23 154.364 462.23H99.1767C97.5227 462.23 96.1706 460.88 96.1706 459.228V445.622C96.1837 443.971 97.5358 442.621 99.1767 442.621Z" fill="#151F42"/>
<path fill-rule="evenodd" clip-rule="evenodd" d="M108.655 453.697H144.899L154.377 462.217L146.632 491.958H126.783H106.922L99.1767 462.217L108.655 453.697Z" fill="#151F42"/>
<path fill-rule="evenodd" clip-rule="evenodd" d="M154.377 462.217L152.775 468.338H100.778L99.1767 462.217H154.377Z" fill="#01051A"/>
<path fill-rule="evenodd" clip-rule="evenodd" d="M673.759 457.878C676.791 457.878 679.666 459.071 681.806 461.208C683.945 463.344 685.14 466.215 685.14 469.243C685.14 472.27 683.945 475.141 681.806 477.278C679.666 479.414 676.791 480.607 673.759 480.607C670.726 480.607 667.851 479.414 665.712 477.278C663.572 475.141 662.377 472.27 662.377 469.243C662.377 466.215 663.572 463.344 665.712 461.208C667.851 459.071 670.739 457.878 673.759 457.878ZM678.668 464.34C677.369 463.029 675.61 462.309 673.759 462.309C671.908 462.309 670.162 463.029 668.849 464.34C667.549 465.638 666.814 467.394 666.814 469.243C666.814 471.091 667.536 472.834 668.849 474.145C670.162 475.456 671.908 476.177 673.759 476.177C675.61 476.177 677.355 475.456 678.668 474.145C679.981 472.834 680.703 471.091 680.703 469.243C680.703 467.394 679.981 465.638 678.668 464.34Z" fill="#F7B63A"/>
<path fill-rule="evenodd" clip-rule="evenodd" d="M655.643 491.486C665.462 491.486 673.496 483.464 673.496 473.66V472.664V456.41V455.086C673.496 454.221 672.787 453.513 671.921 453.513H639.378C638.512 453.513 637.803 454.221 637.803 455.086V456.41V472.664V473.66C637.79 483.477 645.824 491.486 655.643 491.486Z" fill="#FAC74C"/>
<path fill-rule="evenodd" clip-rule="evenodd" d="M667.379 471.445C667.379 473.345 667.077 475.18 666.512 476.911C666.197 477.881 665.803 478.824 665.331 479.716C663.388 483.386 660.211 486.309 656.352 487.908C654.251 488.786 651.941 489.271 649.526 489.271C648.528 489.271 647.556 489.192 646.598 489.035C649.25 490.608 652.348 491.499 655.63 491.499C659.634 491.499 663.349 490.162 666.342 487.908C668.285 486.44 669.925 484.592 671.146 482.468C671.645 481.603 672.065 480.699 672.406 479.768C673.102 477.867 673.483 475.823 673.483 473.686V472.69V462.387V459.556V456.436V455.112C673.483 454.247 672.774 453.54 671.908 453.54H667.379V454.221V460.998V464.419V470.462V471.445V471.445Z" fill="#F7B63A"/>
<path fill-rule="evenodd" clip-rule="evenodd" d="M640.179 491.486H671.12C672.433 491.486 673.496 490.411 673.496 489.114C673.496 487.803 672.433 486.741 671.12 486.741H640.179C638.866 486.741 637.803 487.816 637.803 489.114C637.79 490.425 638.866 491.486 640.179 491.486Z" fill="#FAC74C"/>
<path fill-rule="evenodd" clip-rule="evenodd" d="M643.513 456.908C645.167 456.908 646.52 458.258 646.52 459.91V470.658C646.52 472.31 645.167 473.66 643.513 473.66C641.859 473.66 640.507 472.31 640.507 470.658V459.91C640.507 458.258 641.859 456.908 643.513 456.908Z" fill="#FAD996"/>
<path fill-rule="evenodd" clip-rule="evenodd" d="M640.402 431.545H654.015C655.052 431.545 655.892 430.706 655.892 429.67C655.892 428.635 655.052 427.796 654.015 427.796H635.716C633.025 427.796 630.819 425.594 630.819 422.907C630.819 420.22 633.025 418.018 635.716 418.018H683.315C686.006 418.018 688.212 420.22 688.212 422.907C688.212 425.594 686.006 427.796 683.315 427.796H666.709C665.672 427.796 664.832 428.635 664.832 429.67C664.832 430.706 665.672 431.545 666.709 431.545H673.102C675.19 431.545 676.883 433.249 676.883 435.32C676.883 437.391 675.176 439.095 673.102 439.095H662.535C658.4 439.095 655.013 442.477 655.013 446.606V450.053C655.013 451.023 654.212 451.822 653.241 451.822C652.269 451.822 651.468 451.023 651.468 450.053V443.499C651.468 441.074 649.486 439.095 647.058 439.095H640.402C638.328 439.095 636.622 437.391 636.622 435.32C636.622 433.236 638.315 431.545 640.402 431.545Z" fill="white"/>
<path fill-rule="evenodd" clip-rule="evenodd" d="M168.856 152.416C161.597 152.416 154.64 153.727 148.22 156.113C145.319 152.914 141.118 150.909 136.458 150.909C134.292 150.909 132.218 151.341 130.328 152.128C129.291 138.47 117.87 127.721 103.929 127.721C97.8771 127.721 92.298 129.753 87.8348 133.161C84.973 129.242 80.3522 126.686 75.1275 126.686C74.248 126.686 73.3947 126.764 72.5677 126.896C72.5677 126.896 70.3098 113.355 38.7124 114.85C18.1157 115.846 4.38451 133.2 0.603843 153.255C-3.22933 173.598 11.4995 186.064 38.1873 186.064H115.389H142.51H187.064C204.326 186.064 228.979 188.882 211.848 170.872C201.045 159.508 185.778 152.416 168.856 152.416Z" fill="white"/>
<path fill-rule="evenodd" clip-rule="evenodd" d="M619.215 187.624C621.985 187.624 624.636 188.122 627.078 189.026C628.181 187.807 629.782 187.047 631.567 187.047C632.394 187.047 633.182 187.217 633.904 187.519C634.298 182.315 638.656 178.212 643.973 178.212C646.283 178.212 648.41 178.986 650.103 180.283C651.193 178.789 652.952 177.819 654.947 177.819C655.275 177.819 655.604 177.845 655.932 177.898C655.262 176.325 654.882 174.595 654.882 172.786C654.882 165.603 660.71 159.77 667.917 159.77C669.256 159.77 670.556 159.966 671.763 160.346C672.708 158.341 674.756 156.938 677.119 156.938H677.29C677.264 156.467 677.25 155.995 677.25 155.523C677.25 142.612 687.739 132.139 700.67 132.139C713.6 132.139 724.089 142.612 724.089 155.523C724.089 155.706 724.089 155.89 724.076 156.06C725.204 155.772 726.386 155.628 727.607 155.628C730.035 155.628 732.306 156.231 734.315 157.292C737.728 152.639 743.241 149.624 749.451 149.624C759.808 149.624 768.209 158.013 768.209 168.355C768.209 170.387 767.881 172.353 767.277 174.175C767.461 174.162 767.658 174.162 767.842 174.162C772.948 174.162 777.084 178.291 777.084 183.39C777.084 183.993 777.031 184.57 776.913 185.133C776.979 185.133 777.044 185.133 777.11 185.133C779.998 185.133 782.334 187.414 782.439 190.271C783.24 190.114 784.067 190.035 784.907 190.035C788.242 190.035 791.353 191.189 793.598 193.312C799.597 198.975 793.046 200.456 786.732 200.456H778.501H772.043H639.614H629.27H612.283C605.707 200.456 596.308 201.531 602.832 194.662C606.941 190.324 612.769 187.624 619.215 187.624Z" fill="white"/>
<path fill-rule="evenodd" clip-rule="evenodd" d="M506.491 50.2025C508.998 50.2025 511.4 50.6482 513.606 51.474C514.603 50.3729 516.06 49.6782 517.662 49.6782C518.41 49.6782 519.132 49.8224 519.775 50.0977C520.13 45.392 524.068 41.6825 528.886 41.6825C530.973 41.6825 532.903 42.3772 534.439 43.5569C535.423 42.2068 537.025 41.3286 538.823 41.3286C539.125 41.3286 539.427 41.3548 539.703 41.3941C539.099 39.9785 538.757 38.4056 538.757 36.7671C538.757 30.2657 544.035 24.9964 550.546 24.9964C551.753 24.9964 552.922 25.1799 554.025 25.5207C554.878 23.6987 556.729 22.4404 558.882 22.4404H559.039C559.013 22.021 559 21.5884 559 21.1558C559 9.47687 568.491 0 580.187 0C591.884 0 601.375 9.47687 601.375 21.1558C601.375 21.3131 601.375 21.4835 601.375 21.6408C602.399 21.3787 603.462 21.2476 604.578 21.2476C606.77 21.2476 608.831 21.7981 610.643 22.755C613.728 18.5474 618.716 15.821 624.334 15.821C633.707 15.821 641.308 23.4104 641.308 32.7693C641.308 34.6044 641.019 36.387 640.468 38.0386C640.638 38.0255 640.809 38.0255 640.98 38.0255C645.601 38.0255 649.342 41.7612 649.342 46.3751C649.342 46.9125 649.289 47.4499 649.197 47.9611C649.25 47.9611 649.316 47.9611 649.368 47.9611C651.98 47.9611 654.107 50.0321 654.186 52.6143C654.908 52.4833 655.656 52.4046 656.417 52.4046C659.437 52.4046 662.246 53.4532 664.281 55.367C669.715 60.4921 663.782 61.8291 658.072 61.8291H650.628H644.787H524.948H515.588H500.216C494.256 61.8291 485.763 62.799 491.67 56.586C495.385 52.6406 500.649 50.2025 506.491 50.2025Z" fill="#D2EAF9"/>
<path fill-rule="evenodd" clip-rule="evenodd" d="M650.261 84.2825H655.853C656.877 84.2825 657.717 85.1214 657.717 86.1438V91.7277C657.717 92.7501 656.877 93.5889 655.853 93.5889H650.261C649.237 93.5889 648.397 92.7501 648.397 91.7277V86.1438C648.397 85.1214 649.237 84.2825 650.261 84.2825Z" fill="#D2EAF9"/>
<path fill-rule="evenodd" clip-rule="evenodd" d="M669.335 84.2825H674.914C675.938 84.2825 676.778 85.1214 676.778 86.1438V91.7277C676.778 92.7501 675.938 93.5889 674.914 93.5889H669.335C668.311 93.5889 667.471 92.7501 667.471 91.7277V86.1438C667.484 85.1214 668.311 84.2825 669.335 84.2825Z" fill="#D2EAF9"/>
<path fill-rule="evenodd" clip-rule="evenodd" d="M688.422 84.2825H694.014C695.038 84.2825 695.878 85.1214 695.878 86.1438V91.7277C695.878 92.7501 695.038 93.5889 694.014 93.5889H688.422C687.398 93.5889 686.558 92.7501 686.558 91.7277V86.1438C686.558 85.1214 687.398 84.2825 688.422 84.2825Z" fill="#D2EAF9"/>
<path fill-rule="evenodd" clip-rule="evenodd" d="M707.509 84.2825H713.101C714.125 84.2825 714.965 85.1214 714.965 86.1438V91.7277C714.965 92.7501 714.125 93.5889 713.101 93.5889H707.509C706.485 93.5889 705.645 92.7501 705.645 91.7277V86.1438C705.645 85.1214 706.485 84.2825 707.509 84.2825Z" fill="#D2EAF9"/>
<path fill-rule="evenodd" clip-rule="evenodd" d="M768.813 332.398C768.813 331.848 769.26 331.415 769.798 331.415C770.349 331.415 770.782 331.861 770.782 332.398V336.829C770.782 337.366 770.336 337.812 769.798 337.812C769.247 337.812 768.813 337.366 768.813 336.829V332.398ZM762.092 336.003C761.711 335.623 761.711 334.993 762.092 334.613C762.473 334.233 763.103 334.233 763.484 334.613L766.621 337.746C767.002 338.126 767.002 338.755 766.621 339.136C766.24 339.516 765.61 339.516 765.23 339.136L762.092 336.003ZM759.874 343.291C759.322 343.291 758.889 342.845 758.889 342.308C758.889 341.757 759.335 341.325 759.874 341.325H764.311C764.862 341.325 765.295 341.77 765.295 342.308C765.295 342.858 764.849 343.291 764.311 343.291H759.874ZM763.484 350.015C763.103 350.395 762.473 350.395 762.092 350.015C761.711 349.635 761.711 349.006 762.092 348.626L765.23 345.493C765.61 345.113 766.24 345.113 766.621 345.493C767.002 345.873 767.002 346.502 766.621 346.882L763.484 350.015ZM770.796 352.217C770.796 352.768 770.349 353.2 769.811 353.2C769.26 353.2 768.827 352.754 768.827 352.217V347.787C768.827 347.236 769.273 346.804 769.811 346.804C770.362 346.804 770.796 347.249 770.796 347.787V352.217ZM777.517 348.612C777.898 348.993 777.898 349.622 777.517 350.002C777.136 350.382 776.506 350.382 776.125 350.002L772.988 346.869C772.607 346.489 772.607 345.86 772.988 345.48C773.369 345.1 773.999 345.1 774.379 345.48L777.517 348.612ZM779.735 341.325C780.274 341.325 780.72 341.77 780.72 342.308C780.72 342.858 780.274 343.291 779.735 343.291H775.298C774.747 343.291 774.314 342.845 774.314 342.308C774.314 341.757 774.76 341.325 775.298 341.325H779.735ZM776.125 334.6C776.506 334.22 777.136 334.22 777.517 334.6C777.898 334.98 777.898 335.61 777.517 335.99L774.379 339.122C773.999 339.503 773.369 339.503 772.988 339.122C772.607 338.742 772.607 338.113 772.988 337.733L776.125 334.6Z" fill="#D2EAF9"/>
<path fill-rule="evenodd" clip-rule="evenodd" d="M29.904 196.76H35.4962C36.5201 196.76 37.3603 197.599 37.3603 198.621V204.205C37.3603 205.227 36.5201 206.066 35.4962 206.066H29.904C28.88 206.066 28.0399 205.227 28.0399 204.205V198.621C28.053 197.599 28.88 196.76 29.904 196.76Z" fill="#D2EAF9"/>
<path fill-rule="evenodd" clip-rule="evenodd" d="M48.991 196.76H54.5833C55.6072 196.76 56.4474 197.599 56.4474 198.621V204.205C56.4474 205.227 55.6072 206.066 54.5833 206.066H48.991C47.9671 206.066 47.127 205.227 47.127 204.205V198.621C47.127 197.599 47.9671 196.76 48.991 196.76Z" fill="#D2EAF9"/>
<path fill-rule="evenodd" clip-rule="evenodd" d="M68.0781 196.76H73.6704C74.6943 196.76 75.5345 197.599 75.5345 198.621V204.205C75.5345 205.227 74.6943 206.066 73.6704 206.066H68.0781C67.0542 206.066 66.2141 205.227 66.2141 204.205V198.621C66.2141 197.599 67.0542 196.76 68.0781 196.76Z" fill="#D2EAF9"/>
<path fill-rule="evenodd" clip-rule="evenodd" d="M87.1652 196.76H92.7575C93.7814 196.76 94.6216 197.599 94.6216 198.621V204.205C94.6216 205.227 93.7814 206.066 92.7575 206.066H87.1652C86.1413 206.066 85.3012 205.227 85.3012 204.205V198.621C85.3012 197.599 86.1413 196.76 87.1652 196.76Z" fill="#D2EAF9"/>
<path fill-rule="evenodd" clip-rule="evenodd" d="M644.931 327.653C644.931 327.102 645.377 326.67 645.916 326.67C646.467 326.67 646.9 327.116 646.9 327.653V332.083C646.9 332.621 646.454 333.066 645.916 333.066C645.364 333.066 644.931 332.621 644.931 332.083V327.653ZM638.197 331.258C637.816 330.877 637.816 330.248 638.197 329.868C638.577 329.488 639.208 329.488 639.588 329.868L642.726 333.001C643.106 333.381 643.106 334.01 642.726 334.39C642.345 334.77 641.715 334.77 641.334 334.39L638.197 331.258ZM635.991 338.546C635.44 338.546 635.007 338.1 635.007 337.562C635.007 337.012 635.453 336.579 635.991 336.579H640.428C640.98 336.579 641.413 337.025 641.413 337.562C641.413 338.1 640.967 338.546 640.428 338.546H635.991ZM639.588 345.27C639.208 345.65 638.577 345.65 638.197 345.27C637.816 344.89 637.816 344.26 638.197 343.88L641.334 340.748C641.715 340.367 642.345 340.367 642.726 340.748C643.106 341.128 643.106 341.757 642.726 342.137L639.588 345.27ZM646.9 347.472C646.9 348.022 646.454 348.455 645.916 348.455C645.364 348.455 644.931 348.009 644.931 347.472V343.041C644.931 342.504 645.377 342.058 645.916 342.058C646.467 342.058 646.9 342.504 646.9 343.041V347.472ZM653.635 343.88C654.015 344.26 654.015 344.89 653.635 345.27C653.254 345.65 652.624 345.65 652.243 345.27L649.106 342.137C648.725 341.757 648.725 341.128 649.106 340.748C649.486 340.367 650.116 340.367 650.497 340.748L653.635 343.88ZM655.84 336.579C656.391 336.579 656.824 337.025 656.824 337.562C656.824 338.1 656.378 338.546 655.84 338.546H651.403C650.865 338.546 650.418 338.1 650.418 337.562C650.418 337.012 650.865 336.579 651.403 336.579H655.84ZM652.23 329.855C652.611 329.475 653.241 329.475 653.621 329.855C654.002 330.235 654.002 330.864 653.621 331.245L650.484 334.377C650.103 334.757 649.473 334.757 649.092 334.377C648.712 333.997 648.712 333.368 649.092 332.988L652.23 329.855Z" fill="white"/>
<path fill-rule="evenodd" clip-rule="evenodd" d="M24.9812 35.43C24.9812 34.8795 25.4276 34.4469 25.9658 34.4469C26.5171 34.4469 26.9503 34.8926 26.9503 35.43V39.8604C26.9503 40.3978 26.504 40.8435 25.9658 40.8435C25.4144 40.8435 24.9812 40.3978 24.9812 39.8604V35.43ZM18.2469 39.0215C17.8662 38.6414 17.8662 38.0122 18.2469 37.6321C18.6276 37.2519 19.2577 37.2519 19.6384 37.6321L22.7759 40.7648C23.1565 41.1449 23.1565 41.7741 22.7759 42.1542C22.3952 42.5344 21.7651 42.5344 21.3844 42.1542L18.2469 39.0215ZM16.0416 46.3225C15.5033 46.3225 15.057 45.8768 15.057 45.3394C15.057 44.802 15.5033 44.3563 16.0416 44.3563H20.4786C21.0299 44.3563 21.4631 44.802 21.4631 45.3394C21.4631 45.8899 21.0168 46.3225 20.4786 46.3225H16.0416ZM19.6516 53.0467C19.2709 53.4269 18.6408 53.4269 18.2601 53.0467C17.8794 52.6666 17.8794 52.0374 18.2601 51.6573L21.3975 48.5246C21.7782 48.1445 22.4083 48.1445 22.789 48.5246C23.1697 48.9047 23.1697 49.5339 22.789 49.914L19.6516 53.0467ZM26.9503 55.2488C26.9503 55.7994 26.504 56.2319 25.9658 56.2319C25.4144 56.2319 24.9812 55.7862 24.9812 55.2488V50.8184C24.9812 50.281 25.4276 49.8353 25.9658 49.8353C26.5171 49.8353 26.9503 50.281 26.9503 50.8184V55.2488ZM33.6846 51.6442C34.0653 52.0243 34.0653 52.6535 33.6846 53.0336C33.3039 53.4138 32.6738 53.4138 32.2931 53.0336L29.1557 49.9009C28.775 49.5208 28.775 48.8916 29.1557 48.5115C29.5364 48.1313 30.1665 48.1313 30.5472 48.5115L33.6846 51.6442ZM35.89 44.3432C36.4414 44.3432 36.8746 44.7889 36.8746 45.3263C36.8746 45.8768 36.4282 46.3094 35.89 46.3094H31.453C30.9017 46.3094 30.4685 45.8637 30.4685 45.3263C30.4685 44.7889 30.9148 44.3432 31.453 44.3432H35.89ZM32.2931 37.6321C32.6738 37.2519 33.3039 37.2519 33.6846 37.6321C34.0653 38.0122 34.0653 38.6414 33.6846 39.0215L30.5472 42.1542C30.1665 42.5344 29.5364 42.5344 29.1557 42.1542C28.775 41.7741 28.775 41.1449 29.1557 40.7648L32.2931 37.6321Z" fill="#D2EAF9"/>
<path fill-rule="evenodd" clip-rule="evenodd" d="M169.106 82.5392C169.106 81.9887 169.552 81.5562 170.09 81.5562C170.642 81.5562 171.075 82.0018 171.075 82.5392V86.9696C171.075 87.5202 170.629 87.9527 170.09 87.9527C169.552 87.9527 169.106 87.507 169.106 86.9696V82.5392ZM162.385 86.1438C162.004 85.7637 162.004 85.1346 162.385 84.7544C162.765 84.3743 163.395 84.3743 163.776 84.7544L166.914 87.8872C167.294 88.2673 167.294 88.8965 166.914 89.2766C166.533 89.6567 165.903 89.6567 165.522 89.2766L162.385 86.1438ZM160.179 93.4317C159.628 93.4317 159.195 92.9861 159.195 92.4486C159.195 91.8981 159.641 91.4656 160.179 91.4656H164.616C165.155 91.4656 165.601 91.9112 165.601 92.4486C165.601 92.9992 165.155 93.4317 164.616 93.4317H160.179ZM163.776 100.156C163.395 100.536 162.765 100.536 162.385 100.156C162.004 99.7759 162.004 99.1467 162.385 98.7666L165.522 95.6338C165.903 95.2537 166.533 95.2537 166.914 95.6338C167.294 96.0139 167.294 96.6431 166.914 97.0232L163.776 100.156ZM171.088 102.358C171.088 102.909 170.642 103.341 170.104 103.341C169.565 103.341 169.119 102.895 169.119 102.358V97.9277C169.119 97.3771 169.565 96.9446 170.104 96.9446C170.655 96.9446 171.088 97.3902 171.088 97.9277V102.358ZM177.822 98.7666C178.203 99.1467 178.203 99.7759 177.822 100.156C177.442 100.536 176.812 100.536 176.431 100.156L173.28 97.0232C172.9 96.6431 172.9 96.0139 173.28 95.6338C173.661 95.2537 174.291 95.2537 174.672 95.6338L177.822 98.7666ZM180.028 91.4656C180.579 91.4656 181.012 91.9112 181.012 92.4486C181.012 92.9992 180.566 93.4317 180.028 93.4317H175.591C175.053 93.4317 174.606 92.9861 174.606 92.4486C174.606 91.8981 175.053 91.4656 175.591 91.4656H180.028ZM176.418 84.7413C176.798 84.3612 177.429 84.3612 177.809 84.7413C178.19 85.1214 178.19 85.7506 177.809 86.1307L174.672 89.2635C174.291 89.6436 173.661 89.6436 173.28 89.2635C172.9 88.8834 172.9 88.2542 173.28 87.8741L176.418 84.7413Z" fill="white"/>
<path fill-rule="evenodd" clip-rule="evenodd" d="M400.422 134.878C400.422 134.878 397.757 124.261 406.71 118.664C415.663 113.054 463.787 110.655 457.014 159.114C450.24 207.574 434.763 249.033 463.302 260.647C463.302 260.647 465.717 261.695 464.693 263.753C463.669 265.811 459.009 264.5 459.009 264.5C459.009 264.5 465.363 273.414 454.349 279.522C443.348 285.63 394.187 291.856 396.668 243.882C399.162 195.895 400.422 134.878 400.422 134.878Z" fill="#0C1332"/>
<path fill-rule="evenodd" clip-rule="evenodd" d="M472.281 459.333C472.281 459.333 500.872 448.546 527.14 441.074C553.408 433.603 586.83 446.881 595.638 454.693C604.447 462.492 598.802 483.74 595.638 490.556L404.111 513.626L212.583 490.556C209.42 483.753 203.775 462.505 212.583 454.693C221.392 446.894 254.814 433.616 281.082 441.074C307.349 448.546 335.941 459.333 335.941 459.333L404.111 464.642L472.281 459.333Z" fill="#0C1332"/>
<path fill-rule="evenodd" clip-rule="evenodd" d="M460.781 328.02C460.781 328.02 512.109 411.582 530.514 414.217C548.918 416.851 644.721 340.709 647.097 338.939C649.473 337.17 648.554 334.05 646.047 334.247C643.54 334.443 630.294 341.731 629.441 342.308C628.588 342.885 628.522 341.993 628.522 341.993C631.069 330.249 620.383 327.404 617.574 327.234C614.765 327.05 612.625 328.283 612.651 329.764C612.664 331.245 614.804 331.835 614.804 331.835C621.407 332.529 622.969 338.166 620.396 341.915C617.823 345.65 612.244 347.577 608.03 343.907C603.816 340.237 606.967 335.361 608.253 333.919C609.54 332.49 610.839 330.983 609.461 329.593C608.07 328.204 606.599 329.462 606.599 329.462C593.209 338.729 599.865 349.36 599.865 349.36C599.865 349.36 601.23 353.095 598.027 355.219C594.824 357.342 540.845 383.65 537.156 383.977C534.399 384.226 507.935 331.874 492.497 300.442C484.988 285.158 474.434 267.148 459.639 262.456C459.639 262.442 437.822 270.058 460.781 328.02Z" fill="#FFC8A9"/>
<path fill-rule="evenodd" clip-rule="evenodd" d="M460.781 328.02C460.781 328.02 512.109 411.582 530.514 414.217C548.918 416.851 644.721 340.709 647.097 338.939C648.804 337.654 648.804 335.675 647.727 334.745C647.557 336.278 645.679 337.536 641.308 340.669C635.703 344.693 592.238 377.83 569.173 391.239C546.096 404.648 540.096 410.494 529.988 407.492C519.88 404.491 511.019 389.351 498.378 373.255C485.736 357.159 466.925 303.823 467.096 284.267C467.161 276.546 469.38 272.312 472.058 270.019C468.29 266.545 464.168 263.871 459.639 262.442C459.639 262.442 437.822 270.058 460.781 328.02Z" fill="#F09373"/>
<path fill-rule="evenodd" clip-rule="evenodd" d="M347.44 328.02C347.44 328.02 296.112 411.582 277.708 414.217C259.304 416.851 163.5 340.709 161.124 338.939C158.748 337.17 159.667 334.05 162.175 334.247C164.682 334.443 177.927 341.731 178.781 342.308C179.634 342.885 179.7 341.993 179.7 341.993C177.153 330.249 187.839 327.404 190.648 327.234C193.457 327.05 195.597 328.283 195.584 329.764C195.57 331.245 193.418 331.835 193.418 331.835C186.815 332.529 185.252 338.166 187.825 341.915C190.398 345.65 195.977 347.577 200.191 343.907C204.405 340.237 201.255 335.361 199.968 333.919C198.682 332.49 197.382 330.983 198.76 329.593C200.152 328.204 201.622 329.462 201.622 329.462C215.012 338.729 208.356 349.36 208.356 349.36C208.356 349.36 206.991 353.095 210.194 355.219C213.397 357.342 267.377 383.65 271.066 383.977C273.822 384.226 300.287 331.874 315.725 300.442C323.233 285.158 333.788 267.148 348.582 262.456C348.582 262.442 370.4 270.058 347.44 328.02Z" fill="#FFC8A9"/>
<path fill-rule="evenodd" clip-rule="evenodd" d="M347.44 328.02C347.44 328.02 296.112 411.582 277.708 414.217C259.304 416.851 163.5 340.709 161.124 338.939C158.998 337.353 159.51 334.692 161.453 334.286C161.636 336.003 163.146 337.471 166.06 339.581C170.642 342.898 242.54 394.175 258.975 402.38C275.411 410.586 278.259 409.957 292.161 393.86C306.063 377.764 339.249 317.338 337.358 292.092C336.755 284.07 333.722 279.456 329.876 276.9C335.206 270.163 341.389 264.736 348.582 262.456C348.582 262.442 370.4 270.058 347.44 328.02Z" fill="#F09373"/>
<path fill-rule="evenodd" clip-rule="evenodd" d="M598.815 459.333C602.701 468.902 598.29 484.815 595.625 490.543C592.461 497.345 550.401 515.775 504.508 518.763C458.615 521.752 406.08 528.227 402.43 528.896C398.768 529.564 322.459 538.687 311.156 542.344C299.854 546.001 306.339 533.379 313.48 531.386C320.634 529.394 324.205 529.722 326.45 528.568C328.694 527.401 336.597 521.175 351.221 515.696C365.858 510.217 373.34 501.422 377.331 497.608C381.322 493.793 389.973 493.125 395.119 494.619C400.278 496.113 403.769 504.253 415.571 504.411C427.372 504.581 449.492 498.106 485.894 481.996C512.949 470.029 537.248 462.374 557.635 459.635C563.043 458.914 597.765 456.725 598.815 459.333Z" fill="#F09373"/>
<path fill-rule="evenodd" clip-rule="evenodd" d="M598.815 459.333C602.701 468.902 598.29 484.815 595.625 490.543C592.461 497.346 550.401 515.775 504.508 518.764C458.615 521.752 406.08 528.227 402.43 528.896C398.768 529.564 322.459 538.687 311.156 542.344C299.854 546.002 306.339 533.379 313.48 531.386C320.634 529.394 324.205 529.722 326.45 528.568C328.694 527.402 336.597 521.176 351.221 515.696C365.858 510.217 373.34 501.422 377.331 497.608C381.322 493.794 389.973 493.125 395.119 494.619C400.278 496.114 403.769 504.253 415.571 504.411C421.662 504.503 430.51 502.812 442.653 498.945C450.49 504.594 469.17 514.32 501.463 510.702C546.056 505.695 574.792 495.393 582.209 489.874C589.639 484.356 595.638 467.159 592.96 464C590.282 460.854 578.363 458.311 578.323 458.298C588.352 457.918 598.264 457.957 598.815 459.333Z" fill="#E8685B"/>
<path fill-rule="evenodd" clip-rule="evenodd" d="M404.111 470.619C404.111 470.619 443.007 471.943 472.281 459.333C472.281 459.333 453.994 443.067 451.5 426.8C449.006 410.533 449.833 379.652 450.831 372.678C451.828 365.705 460.978 334.168 460.978 325.373C460.978 316.577 464.969 269.757 459.652 262.456C459.652 262.456 440.237 257.619 429.932 254.63C419.627 251.642 420.454 235.047 420.454 226.58C420.454 218.112 420.454 217.286 420.454 217.286L404.124 215.805L387.794 217.286C387.794 217.286 387.794 218.112 387.794 226.58C387.794 235.047 388.621 251.642 378.316 254.63C368.011 257.619 348.595 262.456 348.595 262.456C343.279 269.757 347.27 316.577 347.27 325.373C347.27 334.168 356.419 365.718 357.417 372.678C358.415 379.652 359.242 410.533 356.747 426.8C354.253 443.067 335.967 459.333 335.967 459.333C365.215 471.943 404.111 470.619 404.111 470.619Z" fill="#3288C9"/>
<path fill-rule="evenodd" clip-rule="evenodd" d="M404.111 470.619C404.111 470.619 443.007 471.943 472.281 459.333C472.281 459.333 453.994 443.067 451.5 426.8C449.006 410.533 449.833 379.652 450.831 372.678C451.828 365.705 460.978 334.168 460.978 325.372C460.978 316.577 464.969 269.756 459.652 262.455C459.652 262.455 453.889 261.014 446.971 259.231L443.086 271.854L444.819 275.642C444.819 275.642 454.769 277.057 456.83 279.273C458.891 281.475 459.364 284.634 458.733 301.516C458.103 318.399 452.406 342.701 424.445 342.544C396.471 342.386 380.193 342.544 373.564 342.544C366.921 342.544 425.075 354.38 432.032 358.168C438.99 361.956 436.456 416.078 436.456 428.071C436.456 440.065 422.187 461.26 378.119 469.439C392.953 470.999 404.111 470.619 404.111 470.619Z" fill="#296FAD"/>
<path fill-rule="evenodd" clip-rule="evenodd" d="M450.568 260.149C444.123 258.497 435.629 256.282 429.919 254.63C421.609 252.218 420.533 240.972 420.441 232.269L404.124 229.778L387.807 232.269C387.702 240.972 386.625 252.232 378.329 254.63C372.618 256.282 364.125 258.497 357.679 260.149C357.679 260.149 362.668 288.868 364.991 294.189C367.315 299.498 386.074 313.772 404.137 313.772C422.187 313.772 440.946 299.498 443.283 294.189C445.58 288.868 450.568 260.149 450.568 260.149Z" fill="#F09373"/>
<path fill-rule="evenodd" clip-rule="evenodd" d="M450.568 260.149C444.123 258.497 435.629 256.282 429.919 254.63C422.358 252.441 420.796 242.925 420.494 234.667C417.855 234.392 415.545 234.248 413.681 234.248C406.723 234.248 397.705 233.173 389.776 231.954L387.794 232.255C387.715 238.324 387.177 245.625 384.052 250.305C397.534 253.896 422.174 260.502 431.061 263.203C443.545 266.991 443.256 294.189 443.256 294.189C445.58 288.868 450.568 260.149 450.568 260.149ZM397.232 313.13C399.516 313.549 401.827 313.772 404.111 313.772C406.027 313.772 407.957 313.615 409.874 313.313C409.821 313.261 406.014 309.158 407.038 303.365C408.062 297.532 403.953 301.87 403.402 304.78C402.851 307.69 402.102 312.71 397.232 313.13Z" fill="#E8685B"/>
<path fill-rule="evenodd" clip-rule="evenodd" d="M394.987 139.833C394.974 139.767 389.671 114.928 416.109 117.34L415.925 119.398C392.283 117.248 396.996 139.374 397.009 139.44L394.987 139.833Z" fill="#0C1332"/>
<path fill-rule="evenodd" clip-rule="evenodd" d="M434.395 118.494C434.461 118.48 459.521 115.177 455.937 140.043L453.889 139.754C457.079 117.589 434.71 120.538 434.645 120.551L434.395 118.494Z" fill="#0C1332"/>
<path fill-rule="evenodd" clip-rule="evenodd" d="M414.573 163.964C424.707 163.964 432.965 155.719 432.965 145.6C432.965 135.481 424.694 127.236 414.573 127.236C404.439 127.236 396.182 135.481 396.182 145.6C396.169 155.719 404.439 163.964 414.573 163.964Z" fill="#F7B63A"/>
<path fill-rule="evenodd" clip-rule="evenodd" d="M363.245 190.534C362.97 190.573 362.694 190.612 362.418 190.678H362.405C357.351 191.74 353.518 196.157 353.413 201.531C353.295 207.77 358.27 212.935 364.519 213.053C370.767 213.171 375.94 208.203 376.058 201.964C376.123 198.333 374.482 195.069 371.857 192.959C372.146 196.301 371.608 200.43 367.341 200.836L367.459 194.322C367.525 191.674 365.057 190.455 363.245 190.534Z" fill="#E8685B"/>
<path fill-rule="evenodd" clip-rule="evenodd" d="M444.976 190.534C445.252 190.573 445.527 190.612 445.803 190.678H445.816C450.87 191.74 454.703 196.157 454.808 201.531C454.927 207.77 449.951 212.935 443.703 213.053C437.454 213.171 432.282 208.203 432.164 201.964C432.098 198.333 433.752 195.069 436.365 192.959C436.076 196.301 436.614 200.43 440.88 200.836L440.762 194.322C440.697 191.674 443.164 190.455 444.976 190.534Z" fill="#E8685B"/>
<path fill-rule="evenodd" clip-rule="evenodd" d="M404.111 134.052C382.792 134.052 365.346 151.472 365.346 172.759V207.967C365.346 229.254 382.792 246.674 404.111 246.674C425.429 246.674 442.876 229.254 442.876 207.967V172.759C442.876 151.472 425.429 134.052 404.111 134.052Z" fill="#FFC8A9"/>
<path fill-rule="evenodd" clip-rule="evenodd" d="M404.111 246.687C425.429 246.687 442.876 229.267 442.876 207.98V172.76C442.876 167.582 441.839 162.64 439.975 158.118C432.676 153.452 427.267 151.25 427.267 151.25L368.956 161.828L365.333 175.866L371.555 178.946H372.815C372.815 178.946 374.548 172.55 381.269 172.55C387.99 172.55 410.976 172.55 418.879 172.55C426.782 172.55 432.938 172.471 432.938 183.036C432.938 193.614 435.065 200.155 437.441 202.527C437.441 202.527 437.441 206.564 437.441 213.695C437.467 220.839 427.254 244.275 404.111 246.687Z" fill="#F09373"/>
<path fill-rule="evenodd" clip-rule="evenodd" d="M426.086 209.881C423.277 209.828 420.94 212.07 420.887 214.875C420.835 217.68 423.067 220.013 425.889 220.065C428.698 220.118 431.035 217.876 431.087 215.071C431.14 212.266 428.908 209.933 426.086 209.881Z" fill="#E8685B"/>
<path fill-rule="evenodd" clip-rule="evenodd" d="M382.241 209.055C379.431 209.002 377.095 211.244 377.042 214.049C376.99 216.867 379.234 219.187 382.044 219.239C384.853 219.292 387.19 217.063 387.242 214.245C387.295 211.427 385.063 209.107 382.241 209.055Z" fill="#E8685B"/>
<path fill-rule="evenodd" clip-rule="evenodd" d="M380.114 191.045C379.418 191.399 378.565 191.11 378.211 190.416C377.856 189.721 378.145 188.869 378.841 188.515C382.503 186.627 387.4 186.418 390.983 188.567C391.653 188.974 391.876 189.839 391.469 190.507C391.075 191.176 390.196 191.399 389.526 190.992C386.651 189.275 383.041 189.655 380.114 191.045Z" fill="#0C1332"/>
<path fill-rule="evenodd" clip-rule="evenodd" d="M428.357 199.84C428.357 200.784 427.989 201.675 427.32 202.344C426.65 203.012 425.758 203.379 424.812 203.379C423.867 203.379 422.975 203.012 422.305 202.344C421.636 201.675 421.268 200.784 421.268 199.84C421.268 199.053 420.638 198.424 419.85 198.424C419.063 198.424 418.433 199.053 418.433 199.84C418.433 201.531 419.102 203.156 420.31 204.349C421.518 205.542 423.132 206.223 424.826 206.223C426.532 206.223 428.147 205.555 429.341 204.349C429.958 203.733 430.431 202.999 430.759 202.212C430.943 202.173 431.297 202.134 431.626 202.383C431.809 202.514 432.059 202.488 432.19 202.304C432.321 202.121 432.295 201.872 432.111 201.741C431.744 201.465 431.35 201.387 431.022 201.387L431.035 201.36C431.376 201.282 431.822 201.269 432.269 201.492C432.479 201.583 432.715 201.505 432.807 201.295C432.899 201.098 432.82 200.849 432.61 200.757C432.098 200.522 431.599 200.482 431.166 200.522V200.508C431.521 200.364 431.954 200.272 432.439 200.338C432.663 200.364 432.873 200.207 432.886 199.984C432.912 199.761 432.755 199.565 432.531 199.538C432.032 199.473 431.586 199.538 431.179 199.656C431.087 198.962 430.497 198.437 429.775 198.437C429 198.424 428.357 199.067 428.357 199.84Z" fill="#0C1332"/>
<path fill-rule="evenodd" clip-rule="evenodd" d="M429.578 191.058C426.65 189.655 423.04 189.275 420.152 191.005C419.483 191.412 418.603 191.189 418.209 190.521C417.816 189.852 418.026 188.974 418.695 188.581C422.279 186.431 427.175 186.641 430.838 188.528C431.534 188.882 431.822 189.734 431.468 190.429C431.127 191.11 430.273 191.399 429.578 191.058Z" fill="#0C1332"/>
<path fill-rule="evenodd" clip-rule="evenodd" d="M365.346 195.698V201.151C367.197 201.151 369.428 198.477 369.428 196.065C369.428 193.666 369.428 191.071 369.428 191.071C369.428 191.071 373.76 184.216 373.76 177.006C373.76 169.797 375.441 165.511 381.624 165.511C387.807 165.511 393.99 168.735 404.124 168.735C414.258 168.735 420.441 165.511 426.624 165.511C432.807 165.511 434.487 169.81 434.487 177.006C434.487 184.216 438.819 191.071 438.819 191.071C438.819 191.071 438.819 193.653 438.819 196.065C438.819 198.464 441.051 201.151 442.902 201.151V195.698C442.876 191.936 444.254 190.56 444.254 190.56C444.254 190.56 444.254 190.376 444.254 174.359C444.254 119.214 364.007 119.214 364.007 174.359C364.007 190.376 364.007 190.56 364.007 190.56C364.007 190.56 365.372 191.923 365.346 195.698Z" fill="#242B5C"/>
<path fill-rule="evenodd" clip-rule="evenodd" d="M426.493 139.348C425.351 138.614 424.169 137.945 422.948 137.342C423.565 142.546 422.082 150.883 407.603 153.766C392.322 156.807 387.203 144.67 385.509 137.238C380.665 139.61 376.281 142.992 372.763 147.357C377.882 153.281 385.562 159.744 395.434 161.185C412.63 163.689 429.919 151.761 426.493 139.348Z" fill="#392680"/>
<path fill-rule="evenodd" clip-rule="evenodd" d="M365.346 195.698V201.151C367.197 201.151 369.428 198.477 369.428 196.065C369.428 193.666 369.428 191.071 369.428 191.071C369.428 191.071 373.76 184.216 373.76 177.006C373.76 170.728 375.034 166.651 379.458 165.707C372.631 163.44 368.969 160.268 367.131 157.03C365.136 162.024 363.994 167.792 363.994 174.345C363.994 190.363 363.994 190.547 363.994 190.547C363.994 190.547 365.372 191.923 365.346 195.698ZM421.898 166.009C423.513 165.707 425.062 165.498 426.611 165.498C432.794 165.498 434.474 169.797 434.474 176.993C434.474 184.202 438.806 191.058 438.806 191.058C438.806 191.058 438.806 193.64 438.806 196.052C438.806 198.451 441.038 201.138 442.889 201.138V195.685C442.863 191.923 444.241 190.547 444.241 190.547C444.241 190.547 444.241 190.363 444.241 174.345C444.241 161.329 439.764 151.394 432.951 144.525C442.141 159.39 421.898 166.009 421.898 166.009Z" fill="#0C1332"/>
<path fill-rule="evenodd" clip-rule="evenodd" d="M381.335 199.84C381.335 200.784 381.702 201.675 382.372 202.344C383.041 203.012 383.934 203.379 384.879 203.379C385.824 203.379 386.717 203.012 387.387 202.344C388.056 201.675 388.424 200.784 388.424 199.84C388.424 199.053 389.054 198.424 389.841 198.424C390.629 198.424 391.259 199.053 391.259 199.84C391.259 201.531 390.59 203.156 389.382 204.349C388.174 205.542 386.56 206.223 384.866 206.223C383.173 206.223 381.545 205.555 380.35 204.349C379.733 203.733 379.261 202.999 378.946 202.212C378.762 202.173 378.394 202.134 378.079 202.383C377.896 202.514 377.646 202.488 377.515 202.304C377.384 202.121 377.41 201.872 377.594 201.741C377.961 201.465 378.355 201.387 378.683 201.387L378.67 201.36C378.329 201.282 377.882 201.269 377.436 201.492C377.239 201.583 376.99 201.505 376.898 201.295C376.806 201.098 376.885 200.849 377.095 200.757C377.607 200.522 378.106 200.482 378.539 200.522V200.508C378.184 200.364 377.751 200.272 377.265 200.338C377.042 200.364 376.845 200.207 376.819 199.984C376.793 199.761 376.95 199.565 377.174 199.538C377.672 199.473 378.119 199.538 378.513 199.656C378.604 198.962 379.208 198.437 379.917 198.437C380.692 198.424 381.335 199.067 381.335 199.84Z" fill="#0C1332"/>
<path fill-rule="evenodd" clip-rule="evenodd" d="M399.7 219.96C399.687 219.095 398.978 218.401 398.098 218.401C397.232 218.414 396.536 219.121 396.536 220C396.563 222.084 397.442 223.971 398.834 225.335C400.225 226.698 402.142 227.524 404.229 227.497C406.316 227.471 408.206 226.593 409.572 225.203C410.937 223.814 411.764 221.9 411.738 219.816C411.725 218.951 411.016 218.256 410.149 218.256C409.283 218.269 408.587 218.977 408.587 219.855C408.6 221.088 408.115 222.202 407.327 223.014C406.526 223.827 405.423 224.338 404.19 224.351C402.956 224.365 401.84 223.88 401.026 223.093C400.225 222.294 399.713 221.179 399.7 219.96Z" fill="#EE846A"/>
<path fill-rule="evenodd" clip-rule="evenodd" d="M209.289 459.333C205.403 468.902 209.814 484.815 212.465 490.543C215.629 497.345 257.689 515.775 303.582 518.763C349.475 521.752 402.01 528.227 405.66 528.896C409.322 529.564 485.631 538.687 496.934 542.344C508.236 546.001 501.752 533.379 494.61 531.386C487.469 529.394 483.885 529.722 481.641 528.568C479.396 527.401 471.493 521.175 456.869 515.696C442.232 510.217 434.763 501.422 430.772 497.608C426.782 493.793 418.131 493.125 412.985 494.619C407.826 496.113 404.334 504.253 392.532 504.411C380.731 504.581 358.612 498.106 322.21 481.996C295.154 470.029 270.856 462.374 250.469 459.635C245.074 458.914 210.352 456.725 209.289 459.333Z" fill="#FFC8A9"/>
<path fill-rule="evenodd" clip-rule="evenodd" d="M209.289 459.333C205.403 468.902 209.814 484.815 212.465 490.543C215.629 497.346 257.689 515.775 303.582 518.764C349.475 521.752 402.01 528.227 405.66 528.896C409.322 529.564 485.631 538.687 496.934 542.344C503.182 544.363 503.996 541.414 502.264 538.032C502.119 539.316 500.032 539.972 494.033 538.556C488.02 537.141 454.927 527.913 426.322 523.64C397.718 519.38 388.24 522.067 337.043 516.378C285.847 510.702 245.546 497.437 231.802 491.132C218.058 484.815 214.579 474.25 222.639 466.202C230.699 458.153 264.331 462.125 264.371 462.125C259.566 461.063 254.932 460.238 250.482 459.635C245.074 458.914 210.352 456.725 209.289 459.333Z" fill="#F09373"/>
<path fill-rule="evenodd" clip-rule="evenodd" d="M389.329 166.651C389.329 166.651 385.549 160.871 383.356 160.805C381.374 160.74 379.786 164.043 378.88 165.865C379.681 165.629 380.587 165.511 381.611 165.511C384.105 165.498 386.586 166.022 389.329 166.651Z" fill="#01051A"/>
<path fill-rule="evenodd" clip-rule="evenodd" d="M389.329 166.651C389.329 166.651 386.244 162.142 382.726 162.024C379.208 161.906 374.679 179.261 377.804 189.734C377.804 189.734 378.854 192.657 374.732 193.142C370.61 193.614 367.945 190.992 368.851 179.287C369.757 167.582 376.845 159.704 381.873 159.757C386.901 159.809 388.66 164.646 389.329 166.651Z" fill="#151F42"/>
<path fill-rule="evenodd" clip-rule="evenodd" d="M621.958 343.015C628.509 331.756 637.54 320.405 638.499 324.966C639.457 329.515 630.517 339.948 626.369 344.955C622.221 349.963 621.958 343.015 621.958 343.015Z" fill="#FFC8A9"/>
<path fill-rule="evenodd" clip-rule="evenodd" d="M623.691 343.5C633.681 332.883 646.401 322.803 646.296 328.007C646.178 333.211 633.799 342.321 628.01 346.725C622.208 351.129 623.691 343.5 623.691 343.5Z" fill="#FFC8A9"/>
<path fill-rule="evenodd" clip-rule="evenodd" d="M627.038 332.372C626.802 332.031 626.54 331.717 626.277 331.428C623.468 328.322 619.202 327.326 617.574 327.221C614.764 327.037 612.625 328.269 612.651 329.751C612.664 331.232 614.804 331.822 614.804 331.822C621.407 332.516 622.969 338.153 620.396 341.901C619.674 342.937 618.729 343.841 617.652 344.51C617.941 344.444 618.256 344.313 618.585 344.221C621.512 343.33 630.819 337.078 627.038 332.372Z" fill="#F09373"/>
<path fill-rule="evenodd" clip-rule="evenodd" d="M628.824 344.798C628.614 346.817 628.076 349.084 626.671 351.549C634.075 346.069 639.562 341.941 641.321 340.682C645.692 337.549 647.57 336.278 647.74 334.757C647.32 334.404 646.756 334.194 646.047 334.246C644.052 334.404 635.269 339.044 631.331 341.233C630.32 341.796 629.625 342.19 629.454 342.308C629.244 342.452 629.086 342.504 628.955 342.504C628.942 343.225 628.903 343.985 628.824 344.798Z" fill="#FFC8A9"/>
<path fill-rule="evenodd" clip-rule="evenodd" d="M186.263 343.015C179.713 331.756 170.681 320.405 169.723 324.966C168.765 329.515 177.704 339.948 181.852 344.955C186.014 349.963 186.263 343.015 186.263 343.015Z" fill="#FFC8A9"/>
<path fill-rule="evenodd" clip-rule="evenodd" d="M184.544 343.5C174.554 332.883 161.833 322.803 161.938 328.007C162.056 333.211 174.436 342.321 180.225 346.725C186.014 351.129 184.544 343.5 184.544 343.5Z" fill="#FFC8A9"/>
<path fill-rule="evenodd" clip-rule="evenodd" d="M181.183 332.372C181.419 332.031 181.682 331.717 181.944 331.428C184.754 328.322 189.02 327.326 190.648 327.221C193.457 327.037 195.597 328.269 195.584 329.751C195.57 331.232 193.418 331.822 193.418 331.822C186.815 332.516 185.252 338.153 187.825 341.901C188.534 342.937 189.493 343.841 190.569 344.51C190.28 344.444 189.978 344.313 189.637 344.221C186.723 343.33 177.402 337.078 181.183 332.372Z" fill="#F09373"/>
</g>
<defs>
<clipPath id="clip0_1_725">
<rect width="796" height="543" fill="white"/>
</clipPath>
</defs>
</svg>
